<?xml version="1.0" encoding="utf-8"?>
<!-- Generator: Adobe Illustrator 25.4.1, SVG Export Plug-In . SVG Version: 6.00 Build 0)  -->
<svg version="1.1" id="layer" xmlns="http://www.w3.org/2000/svg" xmlns:xlink="http://www.w3.org/1999/xlink" x="0px" y="0px"
	 viewBox="0 0 652 304" style="enable-background:new 0 0 652 304;" xml:space="preserve">
<style type="text/css">
	.st0{fill:#FFFFFF;stroke:#BF9A3C;stroke-width:2;stroke-miterlimit:10;}
</style>
<g>
	<path class="st0" d="M44.6,124.3v9.2h-18V145h18v73.9h-18v11h58.5v-11H66.2V145h18.9v-11.6H66.2v-24.1c0-21.7,6.4-35.2,16.8-35.2
		c1.7,0,3.1,0.2,3.8,0.4c-0.1,0.6-0.3,1.1-0.6,1.6c-0.5,0.8-1.1,1.8-1.1,3.6c0,7.7,4.3,12.4,11.3,12.4c5,0,10.3-3.8,10.3-9.4
		c0-11.7-10.7-16.9-21.3-16.9C59.4,65.8,44.6,87.1,44.6,124.3"/>
	<path class="st0" d="M124.8,124.3v9.2h-18V145h18v73.9h-18v11h58.5v-11h-18.9V145h18.9v-11.6h-18.9v-24.1
		c0-21.7,6.4-35.2,16.8-35.2c1.7,0,3.1,0.2,3.8,0.4c-0.1,0.6-0.3,1.1-0.6,1.6c-0.5,0.8-1.1,1.8-1.1,3.6c0,7.7,4.3,12.4,11.3,12.4
		c5,0,10.3-3.8,10.3-9.4c0-11.7-10.7-16.9-21.3-16.9C139.7,65.8,124.8,87.1,124.8,124.3"/>
	<path class="st0" d="M222,211.8h-25c-2.6,0-4.4-1.7-4.4-3.2c0-8.3,15-10,32.3-12l10.9-1.3c4.9-0.5,25.1-7.4,25.1-30.9
		c0-4.3-1.3-8.4-2.3-11.3c-0.5-1.6-1-3.1-1-3.8c0-1.4,1.8-3.6,3.2-3.8c0.3,0.3,0.8,1,1.2,1.6c1.6,2.3,3.7,5.4,7,5.4
		c5.4,0,9.2-4.3,9.2-10.6c0-7.1-5.8-9.6-10.8-9.6c-7.8,0-12.7,6.8-15.3,11.6c-6.4-8.1-15.9-12-28.9-12c-23.2,0-35.3,17.1-35.3,33.9
		c0,11.4,4.9,20,15,26c-13.8,3-20.8,9.3-20.8,18.9c0,15.4,10.6,19.1,21,20.9c-15.4,5.2-22.9,13.6-22.9,25.6c0,9,9.7,26,46.5,26
		c22.7,0,49.1-10.7,49.1-40.7c0-8-2.3-14.7-6.9-20C260.9,213.3,254.4,211.8,222,211.8 M225.1,139.7c9.8,0,14.2,7.4,14.2,24
		c0,14.6-1.2,24.9-16.6,24.9c-8.8,0-13.3-7.7-13.3-22.9C209.5,143.9,215,139.7,225.1,139.7 M224.6,274.2c-12,0-26.1-4.8-26.1-18.2
		c0-8.1,8.2-24.9,33.6-24.9c30,0,32.2,7.1,32.2,18.9C264.3,254,262.4,274.2,224.6,274.2"/>
	<path class="st0" d="M329.3,131.7c-26.2,0-46.8,22.2-46.8,50.5c0,28.5,20.5,50.7,46.8,50.7c26.2,0,46.8-22.3,46.8-50.7
		C376,153.9,355.5,131.7,329.3,131.7 M329.3,224.9c-20.5,0-22.1-19.3-22.1-42.7c0-23.2,1.7-42.5,22.1-42.5
		c20.5,0,22.1,19.2,22.1,42.5C351.4,205.6,349.7,224.9,329.3,224.9"/>
	<path class="st0" d="M419.8,63.5c-7.2,1.4-15.6,2.1-25.8,2.1h-11.7v11h18V219h-18v11h57.6v-11h-18V63.1L419.8,63.5z"/>
	<path class="st0" d="M467.7,124.3v9.2h-18V145h18v73.9h-18v11h58.5v-11h-18.9V145h18.9v-11.6h-18.9v-24.1
		c0-21.7,6.4-35.2,16.8-35.2c1.7,0,3.1,0.2,3.8,0.4c-0.1,0.6-0.3,1.1-0.6,1.6c-0.5,0.8-1.1,1.8-1.1,3.5c0,7.7,4.3,12.4,11.3,12.4
		c5,0,10.3-3.8,10.3-9.4c0-11.7-10.7-16.9-21.3-16.9C482.5,65.8,467.7,87.1,467.7,124.3"/>
	<path class="st0" d="M601.4,51.7c0,0,1.2,0,1-1.9c-0.1-1.6-3.5-5-4.6-5.7l2.2-3.3l-2.8,0.5c0,0-0.9-2.8-2.4-3.2
		c-1.5-0.3-1.6,0.8-1.6,0.8s-1.3-1-2.2-1s-1.5,0-1.8,0.9c-0.2,0.5,0.3,1,0.8,1.3c0.1,0.1,0.1,0.1,0.2,0.2c-0.2-0.1-0.5,0-0.5,0.2
		c-0.1,0.3,0.1,0.7,0.1,0.8l0,0c-0.1-0.1-0.3-0.2-0.5-0.3c-0.7-0.2-1.8,0.4-2.1,0.9c-0.4,0.6-0.7,1.3-0.2,2c1.4,2.2,5,0.5,5,0.5
		s-0.6,1.2-0.6,1.8c0,0-0.3,0.3-0.6,0.9c-0.4,0.8,0.2,1.9,0.2,1.9s-0.4,0.8-0.3,2c0.1,1.1,0.2,6.3-1.3,6.7c-0.9,0.2-2.1,1-2.6,1.5
		c-0.5,0.4-3.2,1.2-3.1,0.1c0.1-1.1,1.4-2.4,1.6-2.8c0.2-0.4-1-1.2-1-1.2s0.7-1,1.1-2.4c0.3-1.2,0.4-1.7,0.3-3
		c-0.1-1.3-0.6-2.6-0.6-2.6s-1-2.9-3.5-4.3c-2-1.1-3.8-1-3.8-1s-1.5-2.4-3.4-2.8c-1.9-0.5-2.7-0.3-2.7-0.3l0.7,0.8l-3.8-0.1l0.5,0.5
		c0,0-5.4,0.5-8,5.7c-2.5,5.1,0.1,10.3,0.1,10.3l1.1-1.6l1,2.4c0,0,1.5-0.1,1.9-1.4c0.4-1.3,0.4,0.5,0.4,0.5l0.6,0.6
		c0,0-2.8,0.5-2.9,3.5c-0.1,2.4,2.4,4.1,2.4,4.1l5.4,3.3l-0.5-2.3c0,0,1.9,1.3,3.4,2.5c1.5,1.3,2,2.4,2,2.4s0.3-0.5,0.5-0.6
		s0.6-0.1,1,0.4c0.4,0.4,0.2,0.7,0.2,0.7s-0.6,0-0.8,0.4s1.7,1.4,2.7,2.5c0.6,0.8,0.9,1.4,1.2,3c0.3,1.9-0.5,3.9-0.5,3.9
		s-1.9,4.1-2.3,4.9c-0.3,0.5-0.8,1.4-0.8,1.4s-0.8,1-1.3,1.3c-0.4,0.2-1.2,0.1-1.7,0.4s-0.7,1.2-0.7,1.2s1.8-0.2,4.1,0.3
		s3.9,2,3.9,2s0.9-1.1,0-1.7c-0.9-0.5-1.9-0.9-2.1-1.6c-0.2-0.5,0-1,0.2-1.3c0.2-0.4,3.6-6.9,4.3-7.4c0.8-0.5,0.8-0.4,1.6-0.7
		c0.8-0.4,1.4-0.9,1.4-0.9s2.1,0.8,3.2,1.9c1.2,1.1,2.8,3.9,3.1,4.4c0.5,0.8,0.7,1.2,1.2,2c0,0,0.5,0.9,0.4,1.3s-1.2,0.8-1.3,1.4
		s0.6,1.3,0.6,1.3s1-1.5,3.1-2.6c2.1-1.2,3.6-1.5,3.6-1.5s0.1-1.1-0.6-1.2c-0.7-0.1-1.5,0.5-2.2,0.7c-0.7,0.1-1.1-0.2-1.6-0.6
		c-0.7-0.5-3.7-6.4-4-7c-0.2-0.6-0.4-1.8,0.9-2.9c1.4-1.2,5.7-2.5,7-3.4s3.4-2.1,4.3-7.9C605.5,57.6,602,52.9,601.4,51.7"/>
	<path class="st0" d="M584.1,20c-23.5,0-42.5,19-42.5,42.5s19,42.5,42.5,42.5s42.5-19,42.5-42.5S607.6,20,584.1,20 M584.1,97.4
		c-19.3,0-34.9-15.6-34.9-34.9s15.6-34.9,34.9-34.9c19.3,0,34.9,15.6,34.9,34.9C618.9,81.8,603.3,97.4,584.1,97.4"/>
</g>
</svg>
