<?xml version="1.0" encoding="utf-8"?>
<!-- Generator: Adobe Illustrator 25.4.1, SVG Export Plug-In . SVG Version: 6.00 Build 0)  -->
<svg version="1.1" id="Calque_1" xmlns="http://www.w3.org/2000/svg" xmlns:xlink="http://www.w3.org/1999/xlink" x="0px" y="0px"
	 viewBox="0 0 2500 926" style="enable-background:new 0 0 2500 926;" xml:space="preserve">
<style type="text/css">
	.st0{fill-rule:evenodd;clip-rule:evenodd;fill:#FFFFFF;}
	.st1{fill:#BF9A3C;}
</style>
<g>
	<g>
		<path class="st0" d="M115.3,786.5c-22,0-43.5-8.9-59-24.5c-15.8-15.8-24.5-36.8-24.5-59.2V224c0.1-46.1,37.6-83.7,83.7-83.7
			l453.6-0.5c40.4,0,79.9,16.4,108.4,45.1c28.7,28.6,45.2,68.3,45.1,108.8v101.7c0,41.1-16,79.8-45.1,108.8
			c-29.1,29.1-67.7,45.1-108.8,45.1l-369.5,0.4l0.1,153.1c0.1,22.1-8.9,43.7-24.5,59.2c-15.5,15.6-37,24.5-59,24.5
			C115.7,786.5,115.3,786.5,115.3,786.5z M555.7,382.5v-75.8H198.9l0.1,75.8H555.7z M849.3,786.5c-22.4,0-43.4-8.7-59.2-24.5
			c-15.8-15.8-24.5-36.9-24.5-59.2V224c0.1-46.1,37.6-83.7,83.7-83.7h0.2c22,0,43.5,8.9,59,24.5c15.6,15.6,24.6,37.1,24.5,59.2
			v478.7c0.1,22.1-8.9,43.7-24.5,59.2C892.7,777.8,871.6,786.5,849.3,786.5z M1049.5,786.5c-22.4,0-43.4-8.7-59.2-24.5
			c-15.8-15.8-24.5-36.9-24.5-59.2l0.3-448c0-66.4,30.3-86.3,64-102.4c11.9-5.7,27.4-8.6,44.9-8.6c38.4,0,77.8,13.6,98.1,33.9
			l364.4,363.2V224c0.1-46.1,37.6-83.7,83.7-83.7h0.2c22,0,43.5,8.9,59.1,24.5c15.6,15.6,24.6,37.1,24.5,59.2v455.5
			c-0.4,52.8-21.3,74.1-57.4,93c-11.7,6.1-25.2,9.2-40.2,9.2c0,0,0,0,0,0c-44.9,0-90.3-26.9-108.1-46l-366.1-364v331
			c0.1,22.1-8.9,43.7-24.5,59.2C1092.9,777.8,1071.9,786.5,1049.5,786.5z M1894.7,778.7c-40.4,0-79.9-16.4-108.4-45.1
			c-29.1-29.1-45.1-67.7-45.1-108.8V293.7c0-84.9,69-153.9,153.9-153.9l459-0.3c22.4,0,43.4,8.7,59.2,24.5
			c15.8,15.8,24.5,36.8,24.5,59.2c0.1,22.1-8.9,43.7-24.5,59.2c-15.5,15.6-37,24.5-59,24.5l-446.2-0.3v305.2h393.3v-62.2h-230.1
			c-22,0-43.5-8.9-59-24.5c-15.8-15.8-24.5-36.8-24.5-59.2c0.1-46.1,37.6-83.7,83.7-83.7l243.3,0.3c40.4,0,79.9,16.4,108.4,45.1
			c28.8,28.6,45.2,68.3,45,108.8v88.4c0.1,40.5-16.3,80.2-45.1,108.8c-29,29.1-67.7,45.1-108.8,45.1L1894.7,778.7z"/>
		<path class="st1" d="M2354.1,144.5c21,0,40.8,8.2,55.7,23.1c14.9,14.9,23,34.6,23,55.7c0.1,20.9-8.2,40.9-23,55.7
			c-14.7,14.8-34.6,23.1-55.5,23.1c-0.1,0-0.1,0-0.2,0l-451-0.3v315.2h403.3v-72.2h-234.9c-0.1,0-0.1,0-0.2,0
			c-20.8,0-40.8-8.3-55.5-23.1c-14.9-14.9-23.1-34.6-23.1-55.7c0.1-43.5,35.3-78.7,78.8-78.7l242.9,0.3c0.1,0,0.3,0,0.4,0
			c39.4,0,77.1,15.7,104.9,43.6h0c28,27.9,43.7,65.8,43.6,105.3v88.5c0.1,39.5-15.6,77.4-43.6,105.3
			c-28.1,28.1-65.5,43.6-105.3,43.6h-419.2c-0.1,0-0.3,0-0.4,0c-39.4,0-77.1-15.7-104.9-43.6c-28.1-28.1-43.6-65.5-43.6-105.3V293.7
			c0-82.1,66.8-148.9,148.9-148.9L2354.1,144.5 M569,144.8c39.4,0,77.1,15.7,104.9,43.6c28,27.9,43.7,65.8,43.6,105.3v101.7
			c0,39.8-15.5,77.2-43.6,105.3c-28.1,28.1-65.5,43.6-105.3,43.6l-374.5,0.4l0.1,158c0.1,20.9-8.2,40.9-23.1,55.7
			c-14.7,14.8-34.6,23.1-55.5,23.1c-0.1,0-0.2,0-0.2,0c-0.1,0-0.1,0-0.2,0c-20.8,0-40.8-8.3-55.5-23.1
			c-14.9-14.9-23.1-34.6-23.1-55.7V224c0.1-43.5,35.3-78.7,78.7-78.7l453.1-0.5C568.8,144.8,568.9,144.8,569,144.8 M194,387.5h366.7
			v-85.8H193.9L194,387.5 M849.5,145.3c20.8,0,40.8,8.3,55.5,23.1c14.8,14.7,23.1,34.8,23.1,55.7v478.7c0.1,20.9-8.2,41-23.1,55.7
			c-14.9,14.9-34.6,23-55.7,23c-21,0-40.8-8.2-55.7-23c-14.9-14.9-23.1-34.7-23.1-55.7V224c0.1-43.5,35.3-78.7,78.7-78.7
			C849.3,145.3,849.4,145.3,849.5,145.3 M1621.5,145.3c20.8,0,40.8,8.3,55.5,23.1c14.8,14.7,23.1,34.8,23,55.7v455.5
			c-0.3,50.6-19.5,70.1-54.7,88.6c-11.7,6.1-24.6,8.7-37.9,8.7c-41.5,0-86.3-25-104.6-44.5l-374.7-372.5v343
			c0.1,20.9-8.2,41-23.1,55.7c-14.9,14.9-34.6,23-55.7,23s-40.8-8.2-55.7-23c-14.9-14.9-23.1-34.7-23.1-55.7l0.3-448
			c0-63.5,27.7-81.9,61.2-97.8c11.7-5.6,26.7-8.2,42.7-8.2c34.8,0,74.3,12.2,94.6,32.5l373,371.7V224c0.1-43.5,35.3-78.7,78.8-78.7
			C1621.4,145.3,1621.4,145.3,1621.5,145.3 M2354.1,134.5L2354.1,134.5L2354.1,134.5l-459,0.3c-87.6,0-158.9,71.3-158.9,158.9v331.1
			c0,42.4,16.5,82.3,46.5,112.3c14.7,14.8,32,26.4,51.3,34.4c19.3,8,39.7,12.1,60.6,12.1l0.4,0h419.2c42.4,0,82.3-16.5,112.3-46.5
			c14.9-14.8,26.5-32.1,34.5-51.5c8-19.4,12.1-39.9,12-60.9v-88.4c0.1-21-4-41.4-12-60.8c-8-19.4-19.6-36.7-34.5-51.5
			c-14.7-14.8-32-26.4-51.3-34.4c-19.3-8-39.7-12.1-60.6-12.1l-0.4,0l-242.8-0.3c-23.7,0-46,9.3-62.7,26c-16.8,16.7-26,39-26,62.7
			c0,23.7,9.2,46,26,62.8c16.4,16.5,39.2,26,62.5,26l0.3,0h224.9v52.2h-383.3V311.6l441,0.3l0.2,0c23.3,0,46.1-9.5,62.5-26
			c16.6-16.5,26-39.4,26-62.8c0-23.7-9.2-46-26-62.7C2400.1,143.7,2377.8,134.5,2354.1,134.5L2354.1,134.5z M569,134.8l-0.4,0
			l-453.1,0.5c-23.7,0-46,9.3-62.7,26c-16.7,16.7-26,39-26,62.7v478.7c0,23.7,9.2,46,26,62.7c16.4,16.5,39.2,26,62.5,26l0.2,0l0.2,0
			c23.3,0,46.1-9.5,62.5-26c16.6-16.5,26.1-39.4,26-62.8l-0.1-148l364.5-0.4c42.4,0,82.3-16.5,112.3-46.5
			c30-30,46.5-69.9,46.5-112.4V293.7c0.1-21-4-41.4-12-60.8c-8-19.4-19.6-36.7-34.5-51.5c-14.7-14.8-32-26.4-51.3-34.4
			C610.4,138.9,590,134.8,569,134.8L569,134.8z M203.9,311.6h346.8v65.8H204L203.9,311.6L203.9,311.6z M1621.5,135.3l-0.1,0h-0.1
			c-23.7,0-46,9.3-62.7,26c-16.8,16.7-26,39-26,62.7v304.8l-355.9-354.7c-21.2-21.2-62-35.4-101.6-35.4c-18.2,0-34.5,3.2-47,9.1
			c-15.8,7.5-33.8,17-46.8,34c-13.5,17.7-20.1,41.5-20.1,72.8l-0.3,448c0,23.7,9.2,46,26,62.8c16.8,16.8,39.1,26,62.8,26
			s46-9.2,62.7-26c16.6-16.5,26.1-39.4,26-62.8V383.8l357.5,355.5c18.6,19.8,65.4,47.5,111.7,47.5c15.8,0,30.1-3.3,42.5-9.8
			c21.6-11.3,34.8-21.9,44-35.5c10.7-15.7,15.8-35.4,16-61.9l0,0v0V224c0.1-23.4-9.4-46.3-26-62.8
			C1667.6,144.8,1644.8,135.3,1621.5,135.3L1621.5,135.3z M849.5,135.3l-0.3,0c-23.7,0-45.9,9.3-62.7,26c-16.8,16.8-26,39-26,62.7
			v478.7c0,23.7,9.2,46,26,62.8c16.8,16.8,39,26,62.8,26c23.7,0,46-9.2,62.7-26c16.6-16.5,26.1-39.4,26-62.8V224
			c0.1-23.4-9.4-46.2-26-62.7h0C895.6,144.8,872.8,135.3,849.5,135.3L849.5,135.3z"/>
	</g>
</g>
</svg>
