<?xml version="1.0" encoding="utf-8"?>
<!-- Generator: Adobe Illustrator 25.4.1, SVG Export Plug-In . SVG Version: 6.00 Build 0)  -->
<svg version="1.1" id="svg4111" xmlns:svg="http://www.w3.org/2000/svg"
	 xmlns="http://www.w3.org/2000/svg" xmlns:xlink="http://www.w3.org/1999/xlink" x="0px" y="0px" viewBox="0 0 1024 207"
	 style="enable-background:new 0 0 1024 207;" xml:space="preserve">
<style type="text/css">
	.st0{fill:#FFFFFF;}
	.st1{fill:#BF9A3C;}
</style>
<g id="path3148">
	<path class="st0" d="M120.4,202.6c-7.8,0-15.4-1.8-23.2-5.5l-1.5-0.7l0.9-1.6c11.5-20.2,38.3-67.4,46.5-80.6l1.4-2.2
		c10-16,17.8-28.6,37.1-30.2l0.8-0.1c1.3-0.1,2.5-0.2,3.8-0.2c0.5,0,1,0,1.6,0c4.2,0,8.6,0.4,13.3,1.1l1.6,0.3l-0.8,3.1
		c-0.5,2.2-1.1,4.5-1.7,6.7c-5.9,22.4-18.4,64-36,91.5c-0.1,0.2-0.2,0.3-0.3,0.5c-0.1,0.1-0.7,0.9-0.7,0.9c-1.1,1.6-2.6,3.1-4.8,4.7
		c-5.8,4.3-10.9,6.7-20.1,9.6C132,201.7,126.2,202.6,120.4,202.6C120.4,202.6,120.4,202.6,120.4,202.6z M294.7,177.5
		c-10.4,0-17.5-1.7-22.5-3.2l-1.5-0.4l6.8-21.8l1.9,0.5c3.5,1,7.1,2,12,2c6.6,0,11.4-3.6,14.7-11L288,67.6h31.7l7,44.9l26.1-44.9
		H386l-54.6,87.2C322.9,168.4,313.4,177.5,294.7,177.5z M65.9,176.3c-1.1-0.9-2.3-1.7-3.5-2.7C31,149,12.1,126.6,6.3,107.2l-0.2-0.7
		l0,0c-0.5-1.5-1-3.3-1.4-5.1l-0.3-1.3l1.2-0.5C18.4,94.8,44.9,85.8,79,81.3c2.7-0.4,5.1-0.4,7-0.5c0.5,0,1,0,1.5,0
		c7.8,0,13,1.9,15.8,5.8c3,4.2,3.2,10.4,0.4,19c-7.5,23.2-18.2,44.2-35.7,70.3l-0.9,1.3L65.9,176.3z M953.2,147.3
		c-29.9,0-43.3-18-43.3-35.8c0-18.4,13.3-45.8,50-45.8c24.7,0,38.9,12.5,38.9,34.2c0,3.2-1,9.9-2.1,14.4l-0.3,1.1h-57
		c0.7,5.6,4.1,11.4,20.3,11.4c8.1,0,17.8-2,24.7-5l2.6-1.2l-4.3,22l-0.9,0.2C972.2,145.8,961.8,147.3,953.2,147.3z M972.5,97.9
		c-0.5-7.8-4.6-11.7-12.2-11.7c-10.2,0-16.1,5.7-18.5,11.7H972.5z M843.1,147.3c-17.8,0-31.7-14.3-31.7-32.5c0-24.4,13.2-49,42.6-49
		c12.2,0,22.3,4.4,27.7,11.9l9.4-43.1h30.6l-22.2,98.6c-1,4.6-1.4,8.6-1.7,11.1l-0.1,1.3h-29l1.7-9.1
		C863.6,143.6,856.4,147.3,843.1,147.3z M863.1,88.7c-7.3,0-11.9,3.7-14.4,6.7c-3.4,4-5.3,9.5-5.3,15.1c0,8.9,4.4,14,12,14
		c12.2,0,19.6-12.8,19.6-22C874.9,96.1,871.8,88.7,863.1,88.7z M747.9,147.3c-18.5,0-28.7-8.3-28.7-23.2c0-17.9,17.7-29,46.2-29
		c4.9,0,9.6,0.4,13.4,0.7l0.4,0c0-0.5,0-1,0-1.5c0-4.7-5.5-8-13.4-8c-10.3,0-16.8,1.4-25.6,5.6l-2.5,1.2l3.4-22.5l0.9-0.3
		c9.9-3.1,18.9-4.4,30.2-4.4c23.3,0,36.7,9.8,36.7,27c0,6.3-2,13.9-4.2,22.7c-2.2,8.4-4.6,17.9-6.1,28.8l-0.2,1.3h-25.8l0.9-7.5
		C767.4,144.1,758.6,147.3,747.9,147.3z M768.7,111.8c-11.5,0-19.9,3.9-19.9,9.3c0,2.8,3,5.9,7.9,5.9c9.8,0,17-5.5,19.4-14.9
		c-1.5-0.2-3.4-0.2-5.7-0.2C769.8,111.8,769.2,111.8,768.7,111.8z M458.4,147.3c-14.6,0-25.8-3.5-33.4-10.4
		c-6.8-6.2-10.3-14.9-10.3-25.3c0-27.4,21.7-45.8,53.9-45.8c26.5,0,43.6,13.8,43.6,35.1C512.1,130.4,492.5,147.3,458.4,147.3z
		 M467.1,87c-12.2,0-20.4,12.4-20.4,24c0,9.4,5.1,15.2,13.4,15.2l0.3,0c12.4,0,19.8-9.6,19.8-25.6C480.2,95.5,478.5,87,467.1,87z
		 M227.2,147.3c-23.6,0-28.6-12.6-28.6-23.2c0-17.9,17.7-29,46.1-29c5,0,10,0.4,13.7,0.7l0.2,0c0-0.5,0-1,0-1.5c0-4.7-5.7-8-13.5-8
		c-10.3,0-16.8,1.4-25.6,5.6l-2.5,1.2l3.4-22.5l0.9-0.3c9.9-3.1,18.9-4.4,30.2-4.4c23.3,0,36.7,9.8,36.7,27c0,6.3-2,13.9-4.2,22.7
		c-2.2,8.4-4.6,17.9-6.1,28.8l-0.2,1.3h-25.8l0.9-7.5C246.7,144.1,237.9,147.3,227.2,147.3z M248,111.8c-11.5,0-19.9,3.9-19.9,9.3
		c0,2.5,2.8,5.9,8,5.9c9.7,0,16.8-5.5,19.3-14.9c-1.5-0.2-3.4-0.2-5.7-0.2C249.1,111.8,248.5,111.8,248,111.8z M677.5,145.6
		L695,72.2l-37.9,73.4h-29.9l-3.5-74.1l-17,74.1h-29.5l24.3-103.6h48.2l1.6,63.7l32.1-63.7h49.1l-23.7,103.6H677.5z M507.3,145.6
		l13.1-57.4c1.5-7,2.7-13,3.4-19.4l0.2-1.3h29.1L551,77.7c5.1-6.5,12.8-11.9,22.4-11.9c3.3,0,8.2,0.3,12.4,2l1.3,0.5l-7.4,26.4
		l-1.7-1.3c-3-2.2-6.3-3-11.9-3c-11.8,0-17.8,10-19.5,19.4l-8.3,35.8H507.3z M370,145.6l24.9-111.1h31.4l-24.9,111.1H370z
		 M1006.9,74.3c-6.9,0-12.4-5.6-12.4-12.4s5.6-12.4,12.4-12.4s12.4,5.6,12.4,12.4S1013.7,74.3,1006.9,74.3z M1003.3,68.4
		c1.1,0.6,2.3,0.9,3.6,0.9c1.3,0,2.4-0.3,3.5-0.9h-3.6l-0.1-1.4c0-0.6-0.1-1.3,0.2-2.6c0-0.1,0-0.2,0.1-0.4c0,0-1.1,0-1.1,0
		l-0.9,4.4H1003.3z M1012.8,65.8l-0.4,0.9c1.1-1.3,1.7-3,1.7-4.8c0-0.9-0.2-1.8-0.5-2.6c-0.2,1-0.8,2-1.5,2.7
		c0.3,0.8,0.2,1.7-0.1,2.8c-0.1,0.3-0.1,0.6-0.1,0.7L1012.8,65.8z M1001.9,56.4c-1.5,1.4-2.4,3.3-2.4,5.5c0,1.1,0.2,2.1,0.7,3.1
		L1001.9,56.4z M16,48.1C39.2,21,77.6,4.6,118.8,4.4l1.1,0c27.7,0,55.1,6.8,81.5,20.3c5.9,3,9.4,9.3,9.1,16l0,0.9c0,0.1,0,0.2,0,0.3
		c0,0.3,0,0.5,0,0.8c-0.1,0.7-0.2,1.4-0.3,2.2c-0.1,0.6-0.2,1.2-0.3,1.8l-0.2,1.5l-1.5-0.2c-20.7-3.3-52.5-7.8-90.4-7.8
		c-33.5,0-67.2,3.5-100.3,10.4l-4.3,0.9L16,48.1z"/>
	<path class="st1" d="M119.9,5.9c25.5,0,53.1,6,80.8,20.2c5.4,2.7,8.6,8.5,8.3,14.5v0.9c0,0.3,0,0.6,0,0.9c-0.1,1.2-0.4,2.6-0.6,3.9
		c-25.6-4.1-56-7.8-90.7-7.8c-30.3,0-63.9,2.8-100.6,10.5C38.8,23.8,75.8,6.2,118.8,5.9C119.2,5.9,119.5,5.9,119.9,5.9 M919.9,36
		l-21.7,96.8c-0.9,4.5-1.4,8.2-1.7,11.3h-25.8l2.2-12h-0.3c-7.2,8.4-13.8,13.8-29.4,13.8c-17.4,0-30.2-14.1-30.2-31
		c0-24.6,13.4-47.5,41.1-47.5c14.2,0,24,5.9,28.2,13.9h0.3l9.9-45.2H919.9 M855.3,126c13.2,0,21.1-13.5,21.1-23.5
		c0-7.5-4-15.3-13.3-15.3c-13.2,0-21.3,11.6-21.3,23.3C841.9,119.7,846.4,126,855.3,126 M424.4,36l-24.2,108.1h-28.3L396.1,36H424.4
		 M730.7,43.6l-23,100.6h-28.3l19.7-82.4h-0.3l-42.5,82.4h-27.5l-3.9-82.4h-0.3l-18.9,82.4h-26.4l23.6-100.6h45.5l1.7,67.6h0.3
		l34.1-67.6H730.7 M1006.9,50.9c6,0,10.9,4.9,10.9,10.9c0,6-4.9,10.9-10.9,10.9c-6,0-10.9-4.9-10.9-10.9
		C995.9,55.8,1000.8,50.9,1006.9,50.9 M1006.9,70.8c4.9,0,8.8-4,8.8-8.9c0-4.9-3.8-8.9-8.8-8.9c-4.9,0-8.9,4-8.9,8.9
		C998,66.8,1002,70.8,1006.9,70.8 M1009.4,55.6c3,0,3,2.3,2.8,3.3c-0.3,1.2-1.1,2.3-2.3,2.7c0.8,0.4,1.2,0.7,0.8,2.8
		c-0.4,1.7-0.3,2,0.2,2.2l-0.2,0.3h-2.5c0-0.5-0.1-1,0.2-2.2c0.3-1.5,0.3-2.2-1.4-2.2h-2.3l-0.9,4.4h-2.3l2.3-11.3H1009.4
		 M1004.8,60.6h2.8c1.2,0,1.9-0.5,2.2-1.6c0.1-0.6,0-1.4-1.4-1.4h-3L1004.8,60.6 M960,67.3c21.3,0,37.4,9.9,37.4,32.7
		c0,3-0.9,9.6-2,14.1h-57.4c0.3,8.1,4.8,14.4,21.9,14.4c7.5,0,17.6-1.7,25.3-5.2l-3.6,18.3c-9.8,2.7-20.2,4.2-28.3,4.2
		c-27.1,0-41.8-15.4-41.8-34.3C911.5,94.2,923.9,67.3,960,67.3 M939.6,99.4H974c0-8.1-3.5-14.7-13.8-14.7
		C948.1,84.7,941.7,92.2,939.6,99.4 M772.1,67.3c19.3,0,35.2,7.1,35.2,25.5c0,11.8-7.2,28.7-10.3,51.3h-22.8l1.3-10.5l-0.3-0.3v0.3
		c-5.9,8.6-16.3,12.2-27.2,12.2c-17.4,0-27.2-7.2-27.2-21.7c0-18.4,20-27.5,44.7-27.5c5.6,0,11.1,0.5,15,0.8c0.3-1,0.3-2.1,0.3-3.1
		c0-5.3-5.7-9.5-14.9-9.5c-10.1,0-16.9,1.3-26.3,5.8l2.8-18.8C750.6,69.1,759.5,67.3,772.1,67.3 M756.6,128.5
		c12,0,19.3-7.6,21.3-17.7c-2.3-0.4-5.8-0.5-7.5-0.5c-0.6,0-1.2,0-1.7,0c-12.5,0-21.4,4.5-21.4,10.8
		C747.2,124.6,750.7,128.5,756.6,128.5 M573.5,67.3c3.7,0,8.2,0.4,11.9,1.9l-6.4,23c-3.6-2.6-7.5-3.3-12.8-3.3
		c-11.8,0-18.9,9.6-21,20.6l-8,34.6h-28l12.7-55.5c1.4-6.5,2.7-12.8,3.4-19.6h26l-3.1,15.5h0.3C553,75.8,562,67.3,573.5,67.3
		 M468.5,67.3c27.5,0,42.1,14.8,42.1,33.6c0,31.3-21.9,44.9-52.2,44.9c-30,0-42.2-15.4-42.2-34.3C416.1,85.2,436.8,67.3,468.5,67.3
		 M460.1,127.7c0.1,0,0.2,0,0.3,0c13.1,0,21.3-10.1,21.3-27.1c0-7.8-3.7-15.2-14.5-15.2c-13.5,0-21.9,13.5-21.9,25.5
		C445.2,120.9,450.8,127.7,460.1,127.7 M251.4,67.3c19.3,0,35.2,7.1,35.2,25.5c0,11.8-7.2,28.7-10.3,51.3h-22.8l1.3-10.5l-0.3-0.3
		v0.3c-5.9,8.6-16.3,12.2-27.2,12.2c-17.4,0-27.1-7.2-27.1-21.7c0-18.4,19.8-27.5,44.6-27.5c5.6,0,11.3,0.5,15.2,0.8
		c0.3-1,0.3-2.1,0.3-3.1c0-5.3-5.8-9.5-15-9.5c-10.1,0-16.9,1.3-26.3,5.8l2.8-18.8C230,69.1,238.8,67.3,251.4,67.3 M236.1,128.5
		c12,0,19.1-7.6,21.1-17.7c-2.3-0.4-5.8-0.5-7.5-0.5c-0.6,0-1.2,0-1.7,0c-12.5,0-21.4,4.5-21.4,10.8
		C226.6,124.6,230.2,128.5,236.1,128.5 M383.3,69.1L330.1,154c-8.3,13.3-17.4,22.1-35.3,22.1c-10,0-16.8-1.6-22.1-3.1l5.9-18.9
		c3.6,1,7.5,2.2,12.8,2.2c7.9,0,13-4.7,16.3-12.4l-17.8-74.8h28.5l7.4,47.4h0.3l27.5-47.4H383.3 M87.6,82.3
		c14.1,0,20.1,6.4,14.8,22.9c-7.1,21.9-17.1,42.6-35.5,69.9c-1.1-0.9-2.3-1.7-3.4-2.7c-31.2-24.4-50-46.5-55.7-65.7
		c0,0-0.2-0.6-0.2-0.6c-0.1-0.3-0.8-2.1-1.4-5c13.8-5.3,39.7-13.9,73-18.3c2.5-0.3,4.7-0.4,6.9-0.5C86.6,82.3,87.1,82.3,87.6,82.3
		 M187.9,83c4.1,0,8.3,0.3,13,1.1c-0.7,2.6-1.3,5.5-2,8.1c-5.9,22.3-18.4,63.9-35.8,91c-0.2,0.2-0.3,0.4-0.5,0.6l-0.5,0.6
		c-1.2,1.7-2.7,3.1-4.5,4.4c-5.4,3.9-10.2,6.4-19.7,9.4c-6,1.9-11.7,2.9-17.5,2.9c-7.5,0-14.9-1.7-22.6-5.4
		c11.6-20.4,38.4-67.6,46.6-80.7c10.6-16.9,18-30.1,37.4-31.8c1.5-0.1,3-0.3,4.5-0.3C186.9,83,187.4,83,187.9,83 M119.9,2.9
		c-0.4,0-0.8,0-1.1,0C77.2,3.1,38.3,19.7,14.8,47.1l-5.7,6.7l8.6-1.8c33-6.9,66.6-10.4,100-10.4c37.8,0,69.6,4.4,90.2,7.8l3,0.5
		l0.4-3c0.1-0.6,0.2-1.1,0.3-1.7c0.1-0.7,0.3-1.5,0.4-2.3c0-0.4,0-0.8,0-1c0-0.1,0-0.1,0-0.2l0-0.1l0-0.1v-0.9
		c0.3-7.3-3.6-14-9.9-17.3C175.5,9.8,147.8,2.9,119.9,2.9L119.9,2.9z M923.7,33h-3.7h-27.5H890l-0.5,2.4l-8.5,39
		c-6-6.4-15.6-10-26.9-10c-13.8,0-25.4,5.4-33.3,15.7c-7,9-10.8,21.4-10.8,34.8c0,9,3.3,17.5,9.4,23.9c6.2,6.5,14.7,10.1,23.8,10.1
		c11.7,0,18.9-2.8,25.1-8.1l-0.5,2.8l-0.6,3.5h3.6h25.8h2.7l0.3-2.7c0.3-2.7,0.7-6.4,1.7-11l21.7-96.8L923.7,33L923.7,33z
		 M855.3,123c-9.1,0-10.5-7.8-10.5-12.5c0-10,6.8-20.3,18.3-20.3c7.6,0,10.3,6.6,10.3,12.3C873.4,111.1,866.5,123,855.3,123
		L855.3,123z M428.2,33h-3.7h-28.3h-2.4l-0.5,2.3l-6.9,30.7h-3h-29.7h-1.7l-0.9,1.5L327.4,108l-6.1-39.4l-0.4-2.5h-2.6h-28.5h-3.8
		l0.9,3.7l17.6,73.8c-3,6.6-7.2,9.6-13.1,9.6c-4.7,0-8.2-1-11.6-1.9l-0.5-0.1l-2.8-0.8l-0.9,2.8l-5.9,18.9l-0.9,2.9l2.9,0.9
		c5.1,1.5,12.3,3.3,22.9,3.3c20.5,0,30.3-11.3,37.9-23.5L385,72l-16,71.5l-0.8,3.7h3.7h28.3h2.4l0.5-2.3l24.2-108.1L428.2,33
		L428.2,33z M734.4,40.6h-3.8h-46.3h-1.8l-0.8,1.6l-29,57.5l-1.4-56.2l-0.1-2.9h-2.9h-45.5h-2.4l-0.5,2.3l-23.6,100.6l-0.9,3.7h3.8
		h26.4h2.4l0.5-2.3l14.3-62.3l2.9,61.7l0.1,2.9h2.9h27.5h1.8l0.8-1.6l31.8-61.6l-14.2,59.5l-0.9,3.7h3.8h28.3h2.4l0.5-2.3l23-100.6
		L734.4,40.6L734.4,40.6z M1006.9,47.9c-7.7,0-13.9,6.3-13.9,13.9c0,7.7,6.3,13.9,13.9,13.9c3.7,0,7.2-1.5,9.9-4.1
		c2.6-2.6,4.1-6.1,4.1-9.9c0-3.7-1.5-7.2-4.1-9.9C1014.1,49.4,1010.6,47.9,1006.9,47.9L1006.9,47.9z M960,64.3
		c-37.8,0-51.5,28.3-51.5,47.3c0,18.5,13.8,37.3,44.8,37.3c8.7,0,19.3-1.6,29.1-4.3l1.8-0.5l0.4-1.8l3.6-18.3l1.1-5.7l-5.3,2.3
		c-6.7,3-16.2,4.9-24.1,4.9c-13.3,0-17.3-3.9-18.5-8.4h54h2.4l0.6-2.3c1.1-4.7,2.1-11.5,2.1-14.8c0-11.6-4.1-21-11.8-27.2
		C981.6,67.3,971.7,64.3,960,64.3L960,64.3z M944.1,96.4c2.2-3.9,6.8-8.7,16.2-8.7c6.3,0,9.7,2.9,10.6,8.7H944.1L944.1,96.4z
		 M772.1,64.3c-11.4,0-20.6,1.4-30.6,4.5l-1.8,0.6l-0.3,1.9L736.6,90l-0.8,5.6l5.1-2.4c8.6-4.1,14.9-5.5,25-5.5
		c6.8,0,11.8,2.7,11.9,6.5c-3.6-0.3-7.9-0.6-12.3-0.6c-13.3,0-24.8,2.5-33.1,7.2c-9.6,5.4-14.6,13.5-14.6,23.3
		c0,8.1,2.8,14.4,8.2,18.7c5.1,4,12.5,6.1,22,6.1c9.4,0,17.5-2.5,23.5-7l-0.2,2l-0.4,3.4h3.4H797h2.6l0.4-2.6
		c1.5-10.8,3.9-20.3,6.1-28.6c2.3-8.9,4.3-16.6,4.3-23.1c0-9.6-4.1-17.3-11.7-22.2C792.1,66.5,782.9,64.3,772.1,64.3L772.1,64.3z
		 M756.6,125.5c-4.2,0-6.4-2.5-6.4-4.4c0-3.8,6.9-7.8,18.4-7.8c0.5,0,1.1,0,1.6,0l0,0h0c1.4,0,2.6,0,3.7,0.1
		C771.4,121.1,765.2,125.5,756.6,125.5L756.6,125.5z M573.5,64.3c-8,0-14.8,3.6-19.9,8.4l0.6-3.1l0.7-3.6h-3.7h-26h-2.7l-0.3,2.7
		c-0.7,6.3-1.9,12.3-3.4,19.3l-12.7,55.5l-0.8,3.7h3.8h28h2.4l0.5-2.3l8-34.6l0-0.1l0-0.1c1.6-8.8,7.2-18.2,18-18.2
		c5.3,0,8.4,0.8,11.1,2.7l3.5,2.5l1.2-4.2l6.4-23l0.7-2.6l-2.5-1C582,64.7,576.9,64.3,573.5,64.3L573.5,64.3z M468.5,64.3
		c-33.1,0-55.4,19-55.4,47.3c0,10.8,3.7,20,10.8,26.4c7.9,7.2,19.5,10.8,34.4,10.8c35.1,0,55.2-17.5,55.2-47.9
		c0-10.4-4.2-19.7-11.8-26.2C493.8,67.9,482.3,64.3,468.5,64.3L468.5,64.3z M460.1,124.7c-7.4,0-11.9-5.1-11.9-13.7
		c0-10.9,7.6-22.5,18.9-22.5c9.5,0,11.5,6.6,11.5,12.2c0,15.1-6.8,24.1-18.3,24.1L460.1,124.7L460.1,124.7z M251.4,64.3
		c-11.4,0-20.6,1.4-30.6,4.5l-1.8,0.6l-0.3,1.9L215.9,90l-0.8,5.6l5.1-2.4c8.6-4.1,14.9-5.5,25-5.5c6.9,0,11.9,2.7,12,6.5
		c-3.6-0.3-8.1-0.6-12.5-0.6c-13.3,0-24.7,2.5-33.1,7.2c-9.5,5.4-14.5,13.5-14.5,23.3c0,16,10.7,24.7,30.1,24.7
		c9.4,0,17.5-2.5,23.5-7l-0.2,2l-0.4,3.4h3.4h22.8h2.6l0.4-2.6c1.5-10.8,3.9-20.3,6.1-28.6c2.3-8.9,4.3-16.6,4.3-23.1
		C289.6,74.7,275.7,64.3,251.4,64.3L251.4,64.3z M236.1,125.5c-4.2,0-6.5-2.6-6.5-4.4c0-3.8,6.9-7.8,18.4-7.8c0.5,0,1.1,0,1.6,0l0,0
		h0c1.4,0,2.6,0,3.7,0.1C250.7,121.1,244.6,125.5,236.1,125.5L236.1,125.5z M87.6,79.3c-0.5,0-1,0-1.6,0c-2,0.1-4.4,0.1-7.2,0.5
		C44.5,84.4,17.9,93.4,5.1,98.3l-2.4,0.9l0.5,2.5c0.4,1.9,0.9,3.6,1.5,5.2c0,0.2,0.1,0.5,0.1,0.5l0,0.1l0,0.1
		c5.9,19.8,25,42.4,56.7,67.2c1.2,0.9,2.3,1.8,3.5,2.7l2.5,1.9l1.8-2.6c17.6-26.2,28.3-47.3,35.9-70.7c2.9-9.1,2.7-15.8-0.6-20.4
		C101.5,81.4,95.9,79.3,87.6,79.3L87.6,79.3z M187.9,80c-0.5,0-1.1,0-1.6,0c-1.4,0-2.7,0.1-3.9,0.3l-0.8,0.1
		c-20,1.7-28.1,14.6-38.3,30.9l-1.4,2.2c-8.3,13.2-35.2,60.5-46.6,80.7l0,0.1l-1.6,2.8l2.9,1.4c8,3.8,15.8,5.7,23.9,5.7
		c5.9,0,11.9-1,18.4-3c9.4-3,14.6-5.5,20.6-9.8c2.4-1.7,4-3.3,5.2-5l0.4-0.6l0,0l0,0c0-0.1,0.1-0.1,0.1-0.2c0.1-0.2,0.3-0.3,0.4-0.5
		l0,0l0,0c17.7-27.6,30.3-69.4,36.2-91.9c0.6-2.2,1.1-4.5,1.7-6.7l0.4-1.5l0.8-3.2l-3.2-0.5C196.6,80.3,192.2,80,187.9,80L187.9,80z
		"/>
</g>
</svg>
