<?xml version="1.0" encoding="utf-8"?>
<!-- Generator: Adobe Illustrator 25.4.1, SVG Export Plug-In . SVG Version: 6.00 Build 0)  -->
<svg version="1.1" id="Calque_1" xmlns="http://www.w3.org/2000/svg" xmlns:xlink="http://www.w3.org/1999/xlink" x="0px" y="0px"
	 viewBox="0 0 2500 746.2" style="enable-background:new 0 0 2500 746.2;" xml:space="preserve">
<style type="text/css">
	.st0{fill-rule:evenodd;clip-rule:evenodd;fill:#FFFFFF;stroke:#BF9A3C;stroke-width:6;stroke-miterlimit:10;}
	.st1{fill-rule:evenodd;clip-rule:evenodd;fill:#FFFFFF;stroke:#BF9A3C;stroke-width:4;stroke-miterlimit:10;}
</style>
<g>
	<path class="st0" d="M697,536.8c0,0-44.5,28.1-63.3,37.5c-18.7,7-56.2,11.7-65.6-4.7c-9.4-16.4-11.7-28.1,11.7-37.5
		c21.1-9.4,117.2-25.8,173.4-150c11.7-23.4,28.1-18.7,49.2-14.1c18.7,2.3,18.7,16.4,7,37.5c-14.1,21.1-35.1,60.9-44.5,72.7
		c-16.4,28.1,2.3,65.6,46.9,44.5c51.6-25.8,72.6-56.2,96.1-89c23.4-35.1,42.2-58.6,51.6-72.6c-28.1-2.3-46.9,7-44.5-18.7
		c4.7-21.1,2.3-28.1,70.3-25.8c11.7-11.7,28.1-39.8,32.8-44.5c4.7-7,11.7-16.4,37.5-4.7c11.7,4.7,14.1,11.7,7,23.4
		s-14.1,25.8-16.4,28.1c7,0,32.8,0,53.9,2.3c14.1,2.3,16.4,7,16.4,14.1c-2.3,23.4,0,35.1-42.2,30.5c-14.1,0-53.9-2.3-53.9-2.3
		s-35.1,53.9-46.9,77.3c-11.7,21.1-30.5,56.2,0,70.3c21.1,9.4,60.9,14.1,91.4,0c44.5-16.4,67.9-25.8,89-49.2
		c-4.7-28.1,0-100.8,44.5-178.1c42.2-72.6,67.9-84.4,89.1-100.8c23.4-14.1,60.9-32.8,86.7-7c28.1,25.8,32.8,75,4.7,128.9
		c-28.1,53.9-79.7,126.5-150,175.7c4.7,9.4,9.4,30.5,35.1,39.8c35.1,14.1,82,11.7,126.5-23.4c-21.1-49.2-4.7-112.5,35.2-145.3
		c42.2-35.1,126.5-42.2,128.9,39.8c0,42.2-30.5,84.4-70.3,112.5c9.4,9.4,79.7,25.8,110.1-39.8c25.8-60.9,35.1-89.1,42.2-105.5
		c2.3-9.4,9.4-30.5,39.8-14.1c25.8,14.1,18.7,25.8,4.7,56.2c-14.1,32.8-25.8,68-23.4,86.7c4.7,18.7,9.4,28.1,35.2,25.8
		c25.8,0,49.2-23.4,67.9-53.9c18.7-30.5,51.6-93.7,58.6-114.8c11.7-28.1,32.8-32.8,39.8-23.4c9.4,11.7,25.8,46.9,39.8,72.7
		c11.7,28.1,32.8,89,28.1,114.8c28.1-4.7,53.9-16.4,79.7-65.6c4.7-11.7,16.4-28.1,21.1-44.5c-11.7,0-51.6,2.3-44.5-25.8
		c7-32.8,18.7-25.8,46.9-28.1c16.4,2.3,23.4,0,23.4,0s11.7-16.4,16.4-28.1c11.7-25.8,18.7-37.5,56.2-35.1c18.7,0-2.4,35.1-14.1,67.9
		h79.7c32.8,0,67.9,0,58.6,25.8c-9.4,28.1-16.4,30.5-75,30.5s-91.4-2.3-91.4-2.3s-23.4,30.5-39.8,79.7
		c-2.3,11.7-11.7,39.8,23.4,42.2c37.5,4.7,51.6-2.4,63.3-11.7c14.1-9.4,18.7-14.1,32.8-7c14.1,7,11.7,35.1,0,46.9
		c-11.7,11.7-53.9,35.1-91.4,37.5c-37.5,0-67.9-7-93.7-46.9c-23.4,21.1-63.3,30.5-86.7,23.4c-7,7-77.3,56.2-126.5-21.1
		c-11.7,9.4-49.2,39.8-89,37.5c-25.8,0-53.9-18.7-70.3-35.1c-9.4,7-44.5,37.5-107.8,35.1c-14.1,0-51.6-2.3-86.7-39.8
		c-14.1,11.7-58.6,42.2-126.6,42.2c-28.1,0-86.7-16.4-112.5-68c-39.8,32.8-131.2,63.3-180.4,60.9c-35.1,0-72.6-16.4-93.7-42.2
		c-7,7-63.3,51.6-121.9,49.2C748.5,586.1,725.1,576.7,697,536.8L697,536.8z M1800.6,499.3c9.4,28.1,39.8,28.1,56.2,18.7
		c7-4.7,2.3-25.8-2.4-44.5c-2.3-18.7-18.7-53.9-18.7-53.9C1821.7,459.5,1805.3,490,1800.6,499.3L1800.6,499.3z M1446.8,468.9
		c0,0,25.8-23.4,39.8-44.5c25.8-32.8,0-53.9-23.5-42.2C1442.1,391.6,1423.4,433.7,1446.8,468.9z M1332,265
		c4.7-11.7,14.1-39.8,2.4-42.2c-18.7-4.7-37.5,7-79.7,67.9c-53.9,79.7-44.5,133.6-44.5,133.6C1280.4,377.5,1325,279.1,1332,265z
		 M507.2,243.9c0,0,39.8-11.7,44.5,11.7c2.3,21.1-2.3,35.1-25.8,42.2c-23.4,7-82,32.8-142.9,4.7c-60.9-25.8-46.9-84.4-16.4-114.8
		c32.8-28.1,63.3-70.3,185.1-70.3c131.2,0,297.6,7,351.5,9.4c51.6,0,100.8,0,128.9-11.7c28.1-9.4,77.3-39.8,82-4.7
		c4.7,30.5-18.7,49.2-46.9,56.2c-28.1,7-135.9,18.7-173.4,18.7s-232-7-255.4-9.4c-23.4-2.3-65.6-9.4-124.2,0
		c-44.5,7-77.3,25.8-91.4,42.2c-14.1,14.1-32.8,51.6,30.5,39.8C479.1,255.6,507.2,243.9,507.2,243.9L507.2,243.9z"/>
	<path class="st0" d="M193.2,579c0,0-21.1-28.1,0-42.2s35.1-4.7,44.5,9.4c18.7,23.4,77.3,89,157,16.4
		c32.8-30.5,124.2-147.6,203.9-253.1c25.8-35.1,63.3-86.7,93.7-86.7c32.8-2.3,42.2,7,25.8,25.8c-16.4,21.1-234.3,299.9-271.8,339.8
		C394.7,647,279.9,700.8,193.2,579L193.2,579z M842.3,349.4c21.1,0,37.5-16.4,37.5-35.1c0-21.1-16.4-37.5-37.5-37.5
		s-37.5,16.4-37.5,37.5C804.8,333,821.2,349.4,842.3,349.4z M1704.6,316.6c20.4,0.3,37.2-16.1,37.5-36.5c0-0.3,0-0.6,0-1
		c0-18.8-16.4-35.1-37.5-35.1s-37.5,16.4-37.5,35.1c-0.3,20.4,16.1,37.2,36.6,37.5C1703.9,316.6,1704.3,316.6,1704.6,316.6z"/>
	<path class="st1" d="M2280.9,250.3c-19.5,0-36.5,15.8-36.5,37.8c0,20.7,17,36.5,36.5,36.5s36.5-15.8,36.5-36.5
		C2317.4,266.1,2300.3,250.3,2280.9,250.3z"/>
	<ellipse class="st1" cx="2280.9" cy="288" rx="29.2" ry="30.5"/>
	<path class="st1" d="M2285.7,290.5c6.1-1.2,11-4.9,11-12.2c0-8.5-4.9-12.2-14.6-12.2h-15.8v42.6h6.1v-18.3h7.3l11,18.3h7.3
		L2285.7,290.5L2285.7,290.5z M2272.3,284.4v-12.2h8.5c3.6,0,8.5,1.2,8.5,6.1c0,6.1-4.9,6.1-9.8,6.1H2272.3L2272.3,284.4z"/>
</g>
<g id="Calque_2_00000054978347959150189360000012074475320876845220_">
</g>
</svg>
